<svg xmlns="http://www.w3.org/2000/svg" viewBox="0 0 64 64">
  <defs>
    <radialGradient id="b" cx=".36" cy=".24" r=".84"><stop offset="0" stop-color="#0e3a57"/><stop offset=".5" stop-color="#082536"/><stop offset="1" stop-color="#04121c"/></radialGradient>
    <radialGradient id="h"><stop offset="0" stop-color="#9be0ff" stop-opacity=".16"/><stop offset="1" stop-color="#9be0ff" stop-opacity="0"/></radialGradient>
    <linearGradient id="f" x1=".2" y1="0" x2=".8" y2="1"><stop offset="0" stop-color="#9be0ff"/><stop offset="1" stop-color="#4cc2ff"/></linearGradient>
  </defs>
  <circle cx="32" cy="32" r="30" fill="url(#b)" stroke="#4cc2ff" stroke-opacity=".4" stroke-width="2"/>
  <ellipse cx="27" cy="13" rx="15" ry="7" fill="url(#h)"/>
  <path fill="url(#f)" fill-rule="evenodd" d="M52.7 19.4C52.3 19.5 51.9 19.7 51.3 20.4C50.4 21.2 50 21.5 49.1 22.1C48.3 22.5 47.6 23.1 47.2 23.6C46 25 45.9 25.1 43.1 26.3C42.2 26.7 40.9 27.3 40.4 27.5C37 29.1 37.3 29 33.9 29.3C24.9 30 19.6 31.7 15.9 35.1C14.2 36.7 13.3 37.1 11.2 37.2C9.4 37.3 8.9 37.4 8.9 37.8C8.9 38.4 9.8 38.6 11.4 38.4C13 38.1 13.3 38.1 15.2 38.6C15.8 38.7 16.8 39 17.5 39.1C18.2 39.2 19.1 39.3 19.5 39.4C21.6 39.9 22.3 40 23.2 40.2C23.7 40.2 24.4 40.4 24.8 40.4C25.1 40.5 25.8 40.6 26.3 40.7C26.8 40.7 28.1 40.9 29.1 41.1C32 41.6 32.4 41.6 34.2 41.7C38.1 41.8 38.6 42.1 37.8 43.8C37.2 44.9 37.5 45.5 38.7 45.9C40.3 46.5 41.9 45.4 42.6 43.3C43 42 43.2 41.9 45.1 41.7C46.4 41.6 47.1 41.5 47.8 41.3C48.2 41.2 48.6 41.2 49.6 41.1C51.6 41.1 51.9 40.8 51.3 40C50.7 39.3 50.8 39.1 51.6 37.6C52.2 36.4 52.4 35.8 52.8 34.6C53 34.1 53.2 33.3 53.4 32.9C54.4 30.2 54.7 29.2 54.7 28C54.8 26.6 54.8 26.6 55.9 25C56.6 23.8 56.7 22.3 56.1 21.1C55.6 19.9 53.8 19 52.7 19.4M51.9 23.2C51.5 23.6 51.8 24.3 52.3 24.3C52.6 24.3 52.9 23.9 52.9 23.6C52.9 23.3 52.6 23 52.3 23C52.2 23 52.1 23.1 51.9 23.2"/>
</svg>
